# xmcd
#
# Track frame offsets:
#        150
#        18412
#        36037
#        55462
#        78712
#        102750
#
# Disc length: 1484 seconds
#
# Revision: 1
# Processed by: cddbd v1.5PL3 Copyright (c) Steve Scherf et al.
# Submitted via: ExactAudioCopy v0.95a4
#
DISCID=4505ca06
DTITLE=microstar - BIRTH OF THE MICROSTAR
DYEAR=1996
DGENRE=
TTITLE0=idol
TTITLE1=miss honey tongue
TTITLE2=sweet stupid
TTITLE3=rap phenomena
TTITLE4=marmalade
TTITLE5=microstar's theme
EXTD=
EXTT0=
EXTT1=
EXTT2=
EXTT3=
EXTT4=
EXTT5=
PLAYORDER=
